<?xml version="1.0" encoding="UTF-8" standalone="no"?>
<!DOCTYPE svg PUBLIC "-//W3C//DTD SVG 1.1//EN" "http://www.w3.org/Graphics/SVG/1.1/DTD/svg11.dtd">
<svg width="100%" height="100%" viewBox="0 0 14174 10237" version="1.1" xmlns="http://www.w3.org/2000/svg" xmlns:xlink="http://www.w3.org/1999/xlink" xml:space="preserve" xmlns:serif="http://www.serif.com/" style="fill-rule:evenodd;clip-rule:evenodd;stroke-linejoin:round;stroke-miterlimit:1.41421;">
    <g transform="matrix(1.68948,0,0,1.79339,-851.114,-4107.98)">
        <g>
            <g transform="matrix(0.450376,0,0,0.855429,-33.832,2267.69)">
                <path d="M5312,2394.04C5312,2157.8 4925.3,1966 4448.99,1966L2592.01,1966C2115.7,1966 1729,2157.8 1729,2394.04L1729,2726.96C1729,2963.2 2115.7,3155 2592.01,3155L4448.99,3155C4925.3,3155 5312,2963.2 5312,2726.96L5312,2394.04Z"/>
            </g>
            <g transform="matrix(0.824102,0,0,0.855429,-680.003,3738.13)">
                <path d="M5312,2394.04C5312,2157.8 5100.66,1966 4840.36,1966L2200.64,1966C1940.34,1966 1729,2157.8 1729,2394.04L1729,2726.96C1729,2963.2 1940.34,3155 2200.64,3155L4840.36,3155C5100.66,3155 5312,2963.2 5312,2726.96L5312,2394.04Z"/>
            </g>
            <g transform="matrix(0.824102,0,0,0.855429,2713,3738.13)">
                <path d="M5312,2394.04C5312,2157.8 5100.66,1966 4840.36,1966L2200.64,1966C1940.34,1966 1729,2157.8 1729,2394.04L1729,2726.96C1729,2963.2 1940.34,3155 2200.64,3155L4840.36,3155C5100.66,3155 5312,2963.2 5312,2726.96L5312,2394.04Z"/>
            </g>
            <g transform="matrix(0.824102,0,0,0.855429,2713,2267.69)">
                <path d="M5312,2394.04C5312,2157.8 5100.66,1966 4840.36,1966L2200.64,1966C1940.34,1966 1729,2157.8 1729,2394.04L1729,2726.96C1729,2963.2 1940.34,3155 2200.64,3155L4840.36,3155C5100.66,3155 5312,2963.2 5312,2726.96L5312,2394.04Z"/>
            </g>
            <g transform="matrix(4.65327e-17,0.759937,-0.938692,5.74783e-17,10497.3,2400.22)">
                <path d="M5312,2394.04C5312,2157.8 5088.81,1966 4813.91,1966L2227.09,1966C1952.19,1966 1729,2157.8 1729,2394.04L1729,2726.96C1729,2963.2 1952.19,3155 2227.09,3155L4813.91,3155C5088.81,3155 5312,2963.2 5312,2726.96L5312,2394.04Z"/>
            </g>
            <g transform="matrix(1.77107,0,0,0.855429,-2317.32,811.71)">
                <path d="M5312,2394.04C5312,2157.8 5213.66,1966 5092.54,1966L1948.46,1966C1827.34,1966 1729,2157.8 1729,2394.04L1729,2726.96C1729,2963.2 1827.34,3155 1948.46,3155L5092.54,3155C5213.66,3155 5312,2963.2 5312,2726.96L5312,2394.04Z"/>
            </g>
            <g transform="matrix(0.3115,0,0,0.855429,6997.11,811.71)">
                <path d="M5312,2394.04C5312,2157.8 4752.9,1966 4064.23,1966L2976.77,1966C2288.11,1966 1729,2157.8 1729,2394.04L1729,2726.96C1729,2963.2 2288.11,3155 2976.77,3155L4064.23,3155C4752.9,3155 5312,2963.2 5312,2726.96L5312,2394.04Z"/>
            </g>
        </g>
    </g>
    <g transform="matrix(1.68948,0,0,1.79339,-2017.2,-2783.74)">
        <path d="M7781.25,3724.08L7781.25,4549.71C7491.17,4186.59 7116.83,4232.84 6838.72,4227.38L7781.25,3724.08Z"/>
    </g>
    <g transform="matrix(-1.68948,0,0,-1.79339,19286.9,10570.9)">
        <path d="M7781.25,3724.08L7781.25,4549.71C7491.17,4186.59 7116.83,4232.84 6838.72,4227.38L7781.25,3724.08Z"/>
    </g>
    <g transform="matrix(3.12136,0,0,2.44651,-1117.09,-6144.41)">
        <g transform="matrix(1,0,0,1,-499.499,-2.77943)">
            <g transform="matrix(1,0,0,1.0028,1182,370.835)">
                <path d="M234.801,5276.34L358.208,6106.23C357.883,6112.78 354.446,6114.03 350.238,6113.95L146.27,6113.95C139.323,6114.57 134.704,6112 134.027,6104.03L123.75,5971.66C122.901,5965.61 119.745,5962.32 114.053,5962.07L52.453,5962.07C46.74,5962.84 44.216,5966.32 43.52,5971.34L31.195,6100.35C29.877,6109.78 25.159,6113.47 18.545,6113.95L-182.782,6113.95C-189.811,6113.33 -194.178,6109.4 -194.118,6099.96L-85.899,5284.1C-84.341,5273.92 -78.523,5268.87 -68.444,5268.95L225.76,5268.95C230.51,5268.69 233.796,5270.73 234.801,5276.34Z"/>
            </g>
            <g transform="matrix(1,0,0,1.0028,1182,370.835)">
                <path d="M117.026,5809.94C106.294,5717.56 95.749,5606.46 84.946,5471.98C84.854,5470.83 82.208,5470.78 82.046,5471.95C59.663,5633.76 47.661,5734.77 41.931,5809.57C42.2,5811.58 43.397,5812.36 45.23,5812.28L114.33,5812.28C115.601,5812.28 116.586,5811.68 117.026,5809.94Z" style="fill:white;"/>
            </g>
        </g>
        <g transform="matrix(1,0,0,1,974.872,471.918)">
            <text x="63.555px" y="6029.7px" style="font-family:'Impact', sans-serif;font-stretch:condensed;font-size:1068.91px;">BSENCES</text>
        </g>
    </g>
</svg>
