<?xml version="1.0" encoding="UTF-8" standalone="no"?>
<!DOCTYPE svg PUBLIC "-//W3C//DTD SVG 1.1//EN" "http://www.w3.org/Graphics/SVG/1.1/DTD/svg11.dtd">
<svg width="100%" height="100%" viewBox="0 0 10630 7087" version="1.1" xmlns="http://www.w3.org/2000/svg" xmlns:xlink="http://www.w3.org/1999/xlink" xml:space="preserve" xmlns:serif="http://www.serif.com/" style="fill-rule:evenodd;clip-rule:evenodd;stroke-linejoin:round;stroke-miterlimit:1.41421;">
    <g transform="matrix(1.26711,0,0,1.26711,-1513.43,-1239.17)">
        <g transform="matrix(1,0,0,1,690.625,-690.917)">
            <g transform="matrix(0.458002,0,0,0.855429,-47.017,2219.42)">
                <path d="M5312,2394.04C5312,2157.8 4953.77,1966 4512.53,1966L2528.47,1966C2087.23,1966 1729,2157.8 1729,2394.04L1729,2726.96C1729,2963.2 2087.23,3155 2528.47,3155L4512.53,3155C4953.77,3155 5312,2963.2 5312,2726.96L5312,2394.04Z"/>
            </g>
            <g transform="matrix(0.824102,0,0,0.855429,-680.003,3738.13)">
                <path d="M5312,2394.04C5312,2157.8 5112.91,1966 4867.69,1966L2173.31,1966C1928.09,1966 1729,2157.8 1729,2394.04L1729,2726.96C1729,2963.2 1928.09,3155 2173.31,3155L4867.69,3155C5112.91,3155 5312,2963.2 5312,2726.96L5312,2394.04Z"/>
            </g>
            <g transform="matrix(0.824102,0,0,0.855429,2713,3738.13)">
                <path d="M5312,2394.04C5312,2157.8 5112.91,1966 4867.69,1966L2173.31,1966C1928.09,1966 1729,2157.8 1729,2394.04L1729,2726.96C1729,2963.2 1928.09,3155 2173.31,3155L4867.69,3155C5112.91,3155 5312,2963.2 5312,2726.96L5312,2394.04Z"/>
            </g>
            <g transform="matrix(0.824102,0,0,0.855429,2713,2219.42)">
                <path d="M5312,2394.04C5312,2157.8 5112.91,1966 4867.69,1966L2173.31,1966C1928.09,1966 1729,2157.8 1729,2394.04L1729,2726.96C1729,2963.2 1928.09,3155 2173.31,3155L4867.69,3155C5112.91,3155 5312,2963.2 5312,2726.96L5312,2394.04Z"/>
            </g>
            <g transform="matrix(4.33363e-17,0.707735,-0.938692,5.74783e-17,10497.3,2677.52)">
                <path d="M5312,2394.04C5312,2157.8 5057.61,1966 4744.28,1966L2296.72,1966C1983.39,1966 1729,2157.8 1729,2394.04L1729,2726.96C1729,2963.2 1983.39,3155 2296.72,3155L4744.28,3155C5057.61,3155 5312,2963.2 5312,2726.96L5312,2394.04Z"/>
            </g>
            <g transform="matrix(1.77107,0,0,0.855429,-2317.32,811.71)">
                <path d="M5312,2394.04C5312,2157.8 5219.36,1966 5105.26,1966L1935.74,1966C1821.64,1966 1729,2157.8 1729,2394.04L1729,2726.96C1729,2963.2 1821.64,3155 1935.74,3155L5105.26,3155C5219.36,3155 5312,2963.2 5312,2726.96L5312,2394.04Z"/>
            </g>
            <g transform="matrix(0.3115,0,0,0.855429,6997.11,811.71)">
                <path d="M5312,2394.04C5312,2157.8 4785.29,1966 4136.53,1966L2904.47,1966C2255.71,1966 1729,2157.8 1729,2394.04L1729,2726.96C1729,2963.2 2255.71,3155 2904.47,3155L4136.53,3155C4785.29,3155 5312,2963.2 5312,2726.96L5312,2394.04Z"/>
            </g>
        </g>
        <path d="M7781.25,3724.08L7781.25,4777C7658.9,4216.19 7116.83,4232.84 6838.72,4227.38L7781.25,3724.08Z"/>
    </g>
</svg>
